<svg version="1.0" xmlns="http://www.w3.org/2000/svg" width="1258.667" height="1258.667" viewBox="0 0 944 944"><path d="M772 48.4c-8.5 1.9-11.4 3.9-26 18-16.4 16-20.6 19.4-34 28.1-24.8 16-49.9 38.3-113.7 101.2-84 82.8-117.1 124.5-129.9 163.7-3.2 9.7-3.7 12.7-4.2 23.7-.6 16.1 1.1 24.4 8 38 2.7 5.5 4.7 10.7 4.4 11.4-.3.8-4.7 3.4-9.9 5.8-10.1 4.8-11.4 6.1-15.7 16.7-1.3 3-3.1 6.4-4.1 7.4-1.8 1.9-1.9 1.9-5.6-.6-14.9-9.9-33.1-14.2-50.1-11.8-31.7 4.3-66.3 24.5-112.4 65.6-17 15-67 64.6-96.8 95.9-40.6 42.6-55.5 59.8-77 88.4-7.5 10-17.8 22.1-26.2 30.7-16.4 16.9-19 21.3-19.1 32.8-.1 12.1 2.3 15.9 22.6 36.2 21.1 21.2 24 22.9 37.5 22.2 10.8-.5 14.3-2.3 24.6-11.8 4.2-3.8 8.2-7 8.9-7 .8 0 5.6 3.7 10.8 8.3 47.7 41.8 89.7 55.5 136.8 44.6 39.6-9.1 80.8-34.8 126-78.4 48.6-47 76.6-90.3 86.3-133.7 3-13.7 3.3-44.2.5-58.1-3-14.9-8.5-32.3-16.8-53.3-5.5-13.9-7.9-21.3-7.9-24.3 0-12.6 17-30.4 31.2-32.7 2.9-.5 6.8.7 20.4 6.1 37.1 14.9 57.9 20.3 81.9 21.2 34.7 1.4 67.6-8.8 102.7-31.9 35-23 75-61.4 104.5-100.3 21.8-28.8 36.1-58.3 42-86.5 2.5-12 2.5-38.2-.1-50-6-27.7-20.7-53.8-47.5-84.5-3.3-3.9-6.1-7.6-6.1-8.3 0-.7 3.3-4.8 7.3-9.1 9.8-10.4 12.1-15.3 12.1-25.6 0-12.2-1.7-14.9-21.8-35.3-13.8-14-18.2-17.9-23.1-20.2-7.3-3.5-13.3-4.2-20.5-2.6zm-27.5 103.5c5.9 2.8 9.5 5.8 22.6 19 8.5 8.6 18.2 19 21.6 23.1 15 18.6 25.1 37 30 54.6 2.6 9.1 2.8 11.3 2.7 26.9 0 18.6-1.1 24.2-7.4 40.3-9.2 23.3-29.6 50.1-57.3 75.3C719 425.5 688 444.8 657 453c-12.6 3.3-36.9 3.9-50 1.2-17.9-3.7-37-12.5-54-25-19.1-14-27.2-23.5-31.2-36.5-1.8-5.9-2-8.6-1.6-18.6.5-9.8 1.1-13.3 4.2-22.7 12.9-39.6 50.7-88.2 117.8-151.5 33-31 50.2-43.4 69.8-50 4.2-1.4 7.9-1.8 15.5-1.6 9.1.2 10.7.5 17 3.6zM400.6 511.1c14.7 2.6 24.8 10.3 39.9 30.4C457 563.4 466 584.2 469 607c4.5 34.8-10.3 75-42.5 115-79.4 99-147.9 117.7-220 59.9-11.3-9-37.9-35.3-41.6-41.1-9.2-14.3-9-31.4.7-50.4 9.6-18.9 25-37.2 65.3-77.4 29.6-29.5 48.8-46.9 67.6-61.2 41.6-31.4 76.5-45.4 102.1-40.7z"/></svg>