<?xml version="1.0" standalone="no"?>
<!DOCTYPE svg PUBLIC "-//W3C//DTD SVG 20010904//EN"
 "http://www.w3.org/TR/2001/REC-SVG-20010904/DTD/svg10.dtd">
<svg version="1.0" xmlns="http://www.w3.org/2000/svg"
 width="944.000000pt" height="944.000000pt" viewBox="0 0 944.000000 944.000000"
 preserveAspectRatio="xMidYMid meet">
<metadata>
Created by potrace 1.11, written by Peter Selinger 2001-2013
</metadata>
<g transform="translate(0.000000,944.000000) scale(0.100000,-0.100000)"
fill="#000000" stroke="none">
<path d="M7720 8956 c-85 -19 -114 -39 -260 -180 -164 -160 -206 -194 -340
-281 -248 -160 -499 -383 -1137 -1012 -840 -828 -1171 -1245 -1299 -1637 -32
-97 -37 -127 -42 -237 -6 -161 11 -244 80 -380 27 -55 47 -107 44 -114 -3 -8
-47 -34 -99 -58 -101 -48 -114 -61 -157 -167 -13 -30 -31 -64 -41 -74 -18 -19
-19 -19 -56 6 -149 99 -331 142 -501 118 -317 -43 -663 -245 -1124 -656 -170
-150 -670 -646 -968 -959 -406 -426 -555 -598 -770 -884 -75 -100 -178 -221
-262 -307 -164 -169 -190 -213 -191 -328 -1 -121 23 -159 226 -362 211 -212
240 -229 375 -222 108 5 143 23 246 118 42 38 82 70 89 70 8 0 56 -37 108 -83
477 -418 897 -555 1368 -446 396 91 808 348 1260 784 486 470 766 903 863
1337 30 137 33 442 5 581 -30 149 -85 323 -168 533 -55 139 -79 213 -79 243 0
126 170 304 312 327 29 5 68 -7 204 -61 371 -149 579 -203 819 -212 347 -14
676 88 1027 319 350 230 750 614 1045 1003 218 288 361 583 420 865 25 120 25
382 -1 500 -60 277 -207 538 -475 845 -33 39 -61 76 -61 83 0 7 33 48 73 91
98 104 121 153 121 256 0 122 -17 149 -218 353 -138 140 -182 179 -231 202
-73 35 -133 42 -205 26z m-275 -1035 c59 -28 95 -58 226 -190 85 -86 182 -190
216 -231 150 -186 251 -370 300 -546 26 -91 28 -113 27 -269 0 -186 -11 -242
-74 -403 -92 -233 -296 -501 -573 -753 -377 -344 -687 -537 -997 -619 -126
-33 -369 -39 -500 -12 -179 37 -370 125 -540 250 -191 140 -272 235 -312 365
-18 59 -20 86 -16 186 5 98 11 133 42 227 129 396 507 882 1178 1515 330 310
502 434 698 500 42 14 79 18 155 16 91 -2 107 -5 170 -36z m-3439 -3592 c147
-26 248 -103 399 -304 165 -219 255 -427 285 -655 45 -348 -103 -750 -425
-1150 -794 -990 -1479 -1177 -2200 -599 -113 90 -379 353 -416 411 -92 143
-90 314 7 504 96 189 250 372 653 774 296 295 488 469 676 612 416 314 765
454 1021 407z"/>
</g>
</svg>
