<svg version="1" xmlns="http://www.w3.org/2000/svg" width="1258.667" height="1258.667" viewBox="0 0 944.000000 944.000000"><path d="M55.5.7c-4.5.4-5.3.8-8 4.4-1.6 2.3-5.8 5.9-9.2 8.2-5 3.2-6.1 4.5-5.8 6.1.3 1.2 1.4 6.4 2.5 11.6 1 5.2 3.6 13.5 5.8 18.5 2.1 4.9 4.7 11.4 5.6 14.2 1 2.9 2.2 5.3 2.7 5.3 2 0 7.1 12.6 9 22.3 1.1 5.6 3.5 13.6 5.3 17.7 4 8.9 7.1 18.5 8.6 26.8l1 5.9-5 10.4c-11.3 23.4-12.7 45.6-4.1 66 6.4 15.3 22.6 34.4 40 47.4 8.5 6.3 13 7.1 18.9 3.5 3.3-2 6.7-7.9 5.4-9.1-.4-.4-4.2-2.1-8.4-3.9-14.6-6-26.9-15.6-34-26.4-2.1-3.3-3.7-6-3.6-6.2.2-.1 2.5.2 5.2.7 4.7.9 4.9.8 9.6-3.4 2.6-2.3 7-6.9 9.8-10.2 7.2-8.6 12.9-11.6 31-16 14.1-3.5 15.7-4.1 21.6-8.5 13-9.9 30.1-19.1 42-22.5 3.1-.9 10.2-2.5 15.9-3.5 6.9-1.2 16.7-4.2 30.6-9.4 11.3-4.2 21.9-7.6 23.9-7.6 1.9 0 13-3.1 24.6-6.9 11.6-3.8 30.9-10.1 42.8-14 14.4-4.7 23.3-7.1 26.5-7.1 2.6 0 6.8-.9 9.2-2 2.5-1.2 6.5-2 9.6-2 3.5 0 7.2-.9 11.1-2.6 6.9-3.1 27.2-8.4 32-8.4 1.8 0 7-1.2 11.5-2.6 7.8-2.5 9.1-2.6 25.8-2.2 11.2.2 21.4-.2 28.1-1.1 16.5-2.2 54-.2 54 2.9 0 .3-.7 3.1-1.6 6.1-1.9 6.3-5.1 12-11.5 20.5-2.6 3.4-5.5 8.4-6.5 11-1.1 2.9-3.7 6.7-6.5 9.5-3.6 3.5-6.7 8.5-13.4 22-7.9 15.8-9.5 18.3-17.5 26.9-4.8 5.2-9.9 11.7-11.3 14.5-1.4 2.7-5 7.8-8.1 11.1-4.5 5-5.8 7.2-6.7 11.5-.9 4.3-2.2 6.6-6.6 11.2-6.5 7.1-13.8 17.8-18.6 27.2l-3.5 7.1-8.9 1.3-8.8 1.2-2.7-3.2c-1.6-1.8-2.8-3.6-2.8-4 0-.4 1.6-3.3 3.5-6.5 5.8-9.5 7.8-17.3 7.4-28.4-.7-20.6-.3-43.8 1-51 1.7-9.9 6.5-24.9 10.5-33.1l3.3-6.6-1.9-3.6c-1-2-2.2-3.8-2.8-4.2-2.6-1.6-18.7 9.4-27.5 18.8-3.9 4.1-7.4 6.8-9.9 7.7-2.1.7-7.3 3.5-11.5 6.4-4.2 2.8-9.6 6-11.9 7-3.2 1.5-4.2 2.5-4.2 4.3 0 3.7-3.3 7.4-19.7 21.9l-15.2 13.5-1.6 7.1c-6.2 27.5-6.7 53.6-1.5 75.6 1 4.2 1.6 7.8 1.2 8-.4.1-2.5 1.3-4.7 2.5-3.4 1.9-4.1 2.8-4.5 6.3-.4 3.5-1.3 4.7-6.5 8.9-12.6 10.1-21 18.2-28.8 27.7l-8 9.8-3.6-2.2c-2-1.2-3.7-2.2-3.9-2.4-.2-.1-1.3-5.3-2.6-11.5-2.5-12.5-9.6-34.4-14.5-45.4-3-6.6-3.8-7.4-12.3-13.5-18.6-13.3-39.5-35.9-49.4-53.5-2.8-5.1-4.5-7.1-7.2-8.2-1.9-.8-4-1.2-4.6-1-2.5 1-8.8 31.4-10.6 50.2-6.4 69.7 20.5 127.5 80.1 171.6l9.6 7.2.6 15.1c.6 14.7 2.2 24.4 6.3 36.8 1.5 4.6 1.5 4.8-1.1 8.8-1.4 2.3-5 6.8-8 10-3.3 3.6-5.9 7.5-6.7 10.2-.7 2.4-3.5 7-6.4 10.4-9.5 11.3-20 28.8-21.9 36.6-.6 2.2-1.5 2.8-5.8 3.9-7.4 1.7-8.2 2.3-9.6 7.1-2.9 9.6-9.4 19-26.1 37.8-12.4 13.9-17.5 20.2-21.2 26.1-2.1 3.2-5.2 6.6-7.4 7.9-6.8 4-10.4 8.1-19.8 22.5-9 13.6-10.7 15.5-19.1 21.4-2.2 1.5-9.1 9.1-15.3 16.8-9.6 11.9-12.6 14.9-20 19.9-10.7 7.3-25.4 21.3-30.7 29.3-3.7 5.5-4.7 6.3-12 9.5-8.9 3.8-24.4 8.6-28.1 8.6-1.2 0-2.6.5-2.9 1-.5.9 1.6 13.8 3.1 19.3.3.9 1.7 2.3 3.1 3.1 2.3 1.1 3.6 1 11.3-1.5 4.9-1.6 12.8-3.3 17.8-3.9l9-1.1 9.4 3.9c9.2 3.8 9.4 3.9 21.3 3.6 6.6-.1 13.9-.7 16.1-1.3 11.9-3.2 46.4-5.6 46.4-3.3 0 1.7-8.7 7-14 8.8-3 .9-5.6 1.8-5.8 1.9-.1.1.5 3.5 1.3 7.5l1.5 7.3-4 9.5c-5.9 13.6-8.1 23.5-8.7 38.7-.5 13.2.7 23.6 4.2 36.2l1.5 5.1 12.3 6.1c27.9 14 48.3 13.4 63.5-1.8 6.6-6.6 9.6-15.3 9.7-28.2 0-7.9-.3-9.1-3.8-16.2-2.3-4.6-5.9-9.9-9-13-5-5.1-16.6-13.7-18.5-13.7-.8 0-6.2 10.7-6.2 12.3 0 .4 3.1 4.5 6.8 9.1 19.8 24.7 18.4 38.9-4.3 42.7-6.6 1.1-21.9.7-27.2-.7-2.7-.7-7.7-12.1-9.9-22.3-1.8-8.6-1.8-22 .1-30.1 2.1-8.8 8.3-21 15-29.5 6.4-8.1 18.8-19.4 28.3-25.9 7.5-5.1 13.8-6.5 28.8-6.6 6.1 0 10.1-.7 15.9-2.6 6.7-2.3 8.3-2.5 11.5-1.5 4.8 1.4 12.9 1.4 18.7-.1 3.5-.8 5.3-.8 8 .1 2.8 1.1 3.8 1 5.7-.3 1.9-1.2 7.1-1.5 27.2-1.9 20.2-.3 27-.8 36.3-2.5 10.9-2.1 13.9-2.2 73-2.2 33.9 0 65.7-.5 70.7-1 8.5-.9 9.7-.8 16.2 1.4 6.5 2.3 7.3 2.3 12.8 1 7.3-1.7 22.7-1.8 25.7-.2 1.2.6 6.9 1.3 12.7 1.4 5.8.2 13.4.8 16.8 1.5 5 .9 9.5.9 20-.1 10.2-.9 14.7-1 17.7-.1 2.2.6 10.1 1.1 17.5 1.1 7.8 0 16.8.6 21.3 1.5 6.5 1.2 18.7 1.5 67.6 1.5h59.8l9.9 6.4c28.5 18.3 59.8 30.9 88.6 35.7 6.7 1.1 9.5 1.1 20.5-.4 7.1-1 14.6-1.8 16.8-1.8 2.2 0 5.1-.6 6.5-1.4 1.4-.8 5.2-1.5 8.5-1.5 5.7-.1 27.5-5.6 29.2-7.5.5-.4-.1-.5-1.2-.2-4.6 1.3-46.3 2.9-62.5 2.4-49.5-1.6-74.1-13.3-77.4-36.9-.6-4-1.6-5.6-7.9-12-10.5-10.6-15.8-21.7-19.4-39.7-1.4-7.2-1.7-15.6-1.8-50.6 0-38.8-.2-43-2.3-55.9-9.7-58.5-38.9-97.5-87-116.1-8.6-3.3-9.8-3.5-20.7-3.5H647l-6.9 6.8c-20.2 19.9-23.5 38.5-10.1 58.4 7.2 10.8 14.3 17.2 21.6 19.3 17.8 5.2 31 1.7 39.9-10.9 4-5.7 4.2-7.3 1.5-12.5-2.9-5.9-7.4-9.1-12.3-9.1-5.7 0-6.6.8-7.4 6.6-.3 2.7-1.2 6.3-1.9 8-1.2 3-8.5 10.4-10.2 10.4-1.2 0-11.9-9.4-16.4-14.4-11.2-12.3-13.9-20.6-9.7-29.2 2.2-4.7 5.8-7.8 13.6-11.7 5.4-2.8 21.1-7.7 24.5-7.7 2.6 0 14.3 7.6 25.4 16.6 20.4 16.5 34.9 35.8 43.8 58.3 3.5 8.8 7.6 23.6 7.6 27.3 0 2-6.2 5.5-13.1 7.3-2.5.7-6.7 2.9-9.4 5-5.8 4.4-8 5.3-16 6.7-4.9.9-6.9 1.9-11 5.5-5.6 5.1-12.4 8.8-17.8 9.8-2.3.5-6.2 2.8-10.4 6.2C661 690 651 694 639.2 694c-7 0-7.9.2-12.8 3.6-5.4 3.7-15.2 7.6-30.4 12.1-26 7.6-30.6 9.3-38 14.3l-7.5 5h-10.3c-8.6 0-11.2.4-16 2.4-8.8 3.7-21.1 7.3-32.4 9.6-5.7 1.2-14.8 3.6-20.3 5.5-11.7 3.8-26.1 6.5-35.5 6.5-5.5 0-7.7.6-13.4 3.4-3.8 1.9-9.9 4-13.7 4.6-3.7.6-12.5 3.2-19.6 5.7-7 2.4-15.3 4.8-18.3 5.2-3 .4-9.1 1.7-13.5 2.9-13 3.3-27.2 5.4-40 5.7-10.5.3-12.8.6-18 3-6.5 2.9-18.2 5.5-25 5.5-4.6 0-21.6-2.7-22.5-3.6-1-1.1 12.9-13.3 20.9-18.2 6.8-4.1 15-7.4 26.8-10.8.7-.1 1.5-2 1.8-4.1.3-2.1 2.6-8.1 5.1-13.3 2.4-5.2 4.4-9.9 4.4-10.4 0-.4 2.7-5.4 5.9-11.1 10.8-18.9 9.7-13.6 14-63.1.6-6.1 1.3-18.5 1.7-27.7.4-9.1 1-16.9 1.3-17.4.3-.5 2.4-1.7 4.7-2.7 5.7-2.5 10.6-9.4 12.8-18.1 2-8.2 6.5-14.6 15.5-22.6 4.7-4.1 6.2-6.2 7.2-9.8.8-2.9 3.6-7.5 7.7-12.6 4.9-6.1 9-13.3 17.2-30 8.5-17.1 11.6-22.4 13.9-24 3.9-2.5 7.6-8.2 8.5-12.8.5-2.5 2.3-5.2 6.1-8.9 5-4.9 5.7-6.1 8-14.3 3.5-12.2 8.5-22.5 13.8-28.2 2.4-2.7 6.5-8.1 9.1-12.1 2.7-4 7.4-9.9 10.5-13.1 4.9-5 6.1-7 8.7-14.6 2-6.2 3.5-9 5-9.7 1.2-.6 3.2-3.3 4.5-6.2 1.5-3.1 5.4-8.1 10-12.8 6.6-6.6 7.9-8.4 8.9-13 1.9-7.7 9.3-21.8 11.5-21.8.5 0 1.9 1 3.2 2.2 2.1 2 3.5 2.2 13.6 2.4 8.5.1 12.9.7 18.1 2.4l6.9 2.2 3.1-3.6c2.6-2.9 4.3-3.8 9.9-5.1 3.8-.8 8.2-1.5 9.9-1.5 1.7 0 5.8-1.3 9.2-2.9 8.5-3.9 27.4-9.3 44.6-12.6 8-1.5 15-2.9 15.7-3.1.7-.2 1.9-1.9 2.7-3.9 1.4-3.2 1.8-3.5 5.8-3.5 2.4 0 5.2-.7 6.2-1.5 1.1-.8 2.7-1.5 3.6-1.5.9 0 2.5-1 3.6-2.1 1-1.2 8-5.2 15.4-8.9 7.5-3.7 17.4-9.3 22-12.5 7.6-5 9.2-5.7 16-6.6 27.7-3.4 49.5-11.7 66.8-25.4C814.7 219.9 828 194 832 162c1.5-12.3 2.1-14.2 7.9-23.9 7.1-11.7 15.2-32.3 13.3-33.5-2.2-1.4-19.6-5.6-20.2-4.9-.4.4-2.8 3.6-5.3 6.9l-4.6 6.1-9.8 2.3c-42.3 9.7-72.6 25.7-96.3 50.6-13.8 14.6-24.9 32.9-31.9 52.9l-3.2 8.9 1.6 8.1c1.4 7 4.7 17.6 6.9 22.6.5 1.2-1.5 3-8.6 7.6-32.1 20.9-64.3 33.6-98.3 38.8-13.6 2-44.1 4-48.9 3.1l-3.9-.7.7-5.6c1.1-9.7 2.6-14 5.1-15.1 1.3-.6 3.9-4 5.9-7.9 5.7-10.8 26.7-36.5 32.7-40 1.8-1.1 4.4-4.3 6.2-7.8 2-3.7 6.4-9.2 11.5-14.2 5.9-5.9 9-9.9 10.8-13.9 3.6-8.1 8.8-14.1 13.5-15.5 3-.9 4.6-2.4 7.5-6.8 5-7.5 14.5-17.3 22-22.7 3.4-2.4 7.4-6.3 8.9-8.6 10.3-15.7 29.8-35.9 43-44.5 4.1-2.6 7.5-5.1 7.5-5.4 0-1-11.1-12.2-15.3-15.3-3.6-2.8-3.8-2.8-10.8-1.8-4.5.7-8 .7-9.6.1-1.3-.5-5.9-.9-10.1-.9-4.2 0-13-.7-19.5-1.5-8.9-1.1-12.4-1.2-14-.4-1.2.7-10.1 1.3-22.6 1.5-11.3.1-22.6.7-25.1 1.2-3.1.7-6.2.6-10.5-.3-4.6-.9-14.6-1-44-.4-40.8.9-50.4.4-65.7-3.5-8.2-2.1-9.5-2.1-16.6-1-4.6.8-17.3 1.3-31.7 1.3-21.6.1-25.3-.2-36.7-2.4-10.5-2-16.4-2.5-35-2.9-16.2-.3-24.3 0-29.6 1-9.8 1.9-26.9 1.8-37.8-.2-9.8-1.8-32.9-1.4-46.5.7-12.7 1.9-46.9-.6-55.4-4.1-2.1-.9-12-1.4-32-1.7-24.6-.3-30.1-.7-36.5-2.3-4.1-1.1-12.9-2.9-19.5-4s-13-2.3-14.3-2.5C64.3 58.8 54 45 49.4 35.4c-4.1-8.5-4-8.7 3.6-15.8 6.3-5.9 13.8-9.4 21.8-10.2C78.2 9 81 8.4 81 8c0-.3-1.2-1.8-2.7-3.2C73.4.1 70.5-.4 55.5.7zm602.9 94.8c7.3 1.5 17.1 6.4 17.1 8.5 0 .7-2.4 2.5-5.4 3.9-4.6 2.3-5.6 3.2-7.1 7.4-1 2.6-3.1 6-4.7 7.5-1.5 1.6-5.5 6.6-8.8 11.2-3.5 4.9-10.9 12.9-18 19.4-6.6 6.1-13.8 13.1-16 15.6-2.2 2.4-6.8 7.2-10.2 10.6-4.4 4.2-7.5 8.6-10.3 14.2-3.1 6.1-5.5 9.3-10.3 13.6-3.4 3-6.8 6.1-7.5 6.8-.8.7-3.6 4.7-6.2 8.9-6.1 9.4-12.5 16.7-19.3 21.6-7.2 5.2-11.5 9.9-14.4 15.8-7.4 14.6-20.1 33.1-29 42-3.5 3.5-5.7 6.9-7.5 11.6-1.4 3.7-6.4 13.2-11.2 21.2-4.7 7.9-8.6 15-8.6 15.6 0 2.4-7.1 16.6-10.8 21.5-2.1 2.8-5.6 9-7.9 13.8-5.9 12.4-13.4 23-23.5 33.4l-8.9 9.1-1.7 8.9c-1.7 8.8-1.9 9.2-10.3 20.4-8.7 11.6-15.5 23.1-26.9 46-8 16-14.4 25.4-24.5 36-5.9 6.1-8.5 9.7-9.4 12.8-1.4 5.1-5.9 10.5-10.2 12.2-3 1.3-3.1 1.6-2.5 5.5.6 4.8-.2 5.9-7.1 9.4-8 4-15.1 2.3-21.9-5.1-6.4-6.9-11-16.3-16.8-34-7.5-22.8-7.4-22-3.3-24.8 2.8-1.9 3.7-3.4 4.7-7.9 5.2-23.7 17.2-47.1 31.7-61.9 5.4-5.5 6.3-7.1 6.9-11.1.6-4.3 1-4.9 5.3-7.1 3.6-2 4.9-3.4 6-6.5.9-2.6 2.8-5.2 5.2-6.9 2.8-2.1 3.9-3.9 4.4-6.6.4-2.3 1.8-4.9 3.7-6.6 1.6-1.6 4-4.9 5.3-7.4 1.3-2.5 3.7-5.4 5.4-6.5 1.7-1.1 3.1-2.4 3.1-2.8 0-.4 1.1-1.9 2.4-3.2 1.3-1.3 4.3-6.1 6.6-10.6 5.4-10.6 10-16.7 19.1-25.5 4.5-4.3 8.8-9.6 10.9-13.5 1.9-3.5 6.8-9.7 10.8-13.8 3.9-4.1 7.2-7.9 7.2-8.6 0-1.8 9.7-21.1 13.2-26.3 1.7-2.6 6-7.7 9.5-11.3l6.4-6.6 3.8-14.4 3.8-14.4 6.3-6c6.4-6.1 12.6-14.7 17.5-24.5 1.5-3 6-9.7 9.9-15 4-5.2 8.5-11.6 10.1-14.2 1.9-3 4.3-5.3 6.5-6.3 3.3-1.5 3.9-2.4 5.9-8.8 4.3-13.5 10.8-24.3 20.1-33.7 5.4-5.5 10.7-9.8 14.6-11.8l6.1-3.1 1.8-7.9 1.7-7.9 15.7.4c13 .3 16.8.1 23.1-1.5 9.7-2.5 37.9-2.9 48.4-.7zM415 293c.8.5 2.6 2 3.9 3.3l2.3 2.6-6 3c-6 3-6 3-5.5 6.8.5 3.6.3 4-2.8 5.3-2.9 1.3-3.5 2.1-4 5.8-.5 3.7-1.6 5.4-8.6 12.5-5 5-8.9 10-10.1 12.9-2.7 6.2-7.4 13.1-13.6 19.6-2.8 2.9-5.9 7.6-7.2 10.8-4.6 11.4-12 21.2-23.9 31.6-5.1 4.4-7.2 7.4-8.9 13-2.3 6.8-6.3 13.2-12.1 18.8-2.6 2.5-5.6 6.3-6.7 8.5-1.2 2.2-4.7 6.7-7.9 10-3.1 3.3-6.1 7.3-6.5 9-1.1 4.5-4.9 11.6-8.1 15.1-3.1 3.3-8.1 6.9-8.7 6.3-.2-.2-1.1-6-2-12.9-5.1-40.8-1.7-72.3 10.9-100.5 4.8-10.8 14.8-24.7 24.4-33.7 17.7-16.9 36.7-27.1 65.6-35.4 10.9-3.2 12.4-3.9 16.6-8 2.5-2.5 5.9-4.9 7.5-5.4 3-.8 8.7-.3 11.4 1zM281 538.6c15.4 22.7 27 54.8 27 74.6 0 7.8-9.8 23.3-26.5 42.3-5.9 6.6-12.4 14-14.6 16.5-2.1 2.5-7.8 10.8-12.7 18.5l-8.7 14-6.8.3-6.7.3-3.6 7.2c-8.3 16.5-21.5 32.5-34.4 41.5-3.6 2.5-6.6 4.6-6.7 4.7-.2.1-.9 3.5-1.7 7.6-1.8 9.2-4.8 17.9-8.1 23.6-2.3 3.8-3 4.3-6.1 4.3-1.9 0-6.7-.7-10.6-1.6-6.6-1.5-7.3-1.5-9.9 0-3.7 2.2-24.5 2.2-38.2 0-9.4-1.5-10.4-1.5-16.1.2-4.3 1.3-8.9 1.7-15.6 1.6-5.2-.1-13.2.3-17.8.9-4.6.6-8.5.9-8.8.6-.3-.3.4-2.7 1.6-5.3 1.4-3.2 4.6-7.2 9.7-11.9 9.4-8.7 27-22.9 34-27.4 4-2.6 5.6-4.4 7.2-8.3 4.6-11.1 17.6-26.8 24.9-30.1 1.3-.6 3.3-2.9 4.4-5 2.5-4.9 10.1-13.2 14.9-16.3 3-1.8 3.9-3.2 4.8-7.2.8-3 3.2-7.6 6.4-11.9 17-23.1 21.7-29.3 33.7-43.7 7.3-8.8 17.8-20.6 23.3-26.2 8.6-8.9 10.5-11.4 14.7-20.3 5.7-11.9 11.7-20.5 19.5-28.1 3.2-3 6.8-7.3 8.3-9.5 3.5-5.4 12.3-14.6 13.3-13.9.5.3 3.2 3.9 5.9 8zm33.4 111.6c.4 1.8.9 7.6 1.3 12.8 1 17.2-3.6 33.1-12.6 43.2-4.1 4.6-13.7 11.3-19.7 13.7-2 .8-3.8 2.6-5.1 5.4-5.7 11.7-17.1 22.6-27.9 26.7-5.8 2.1-20.1 4.7-21 3.7-.3-.3-.8-2.3-1.1-4.5-.5-3.6-.2-4.1 2.4-5.7 1.9-1.1 4.2-4.1 6.2-8.2 1.7-3.5 4.8-8.3 6.9-10.6 2.1-2.3 8.1-11 13.2-19.3 8.6-13.7 9.8-15.3 13.4-16.6 3.5-1.3 4.7-2.6 8.6-9.4 6.2-10.7 12-18.5 20.4-27.2 6.2-6.4 7.4-7.2 10.6-7.2 3.4 0 3.8.3 4.4 3.2z"/></svg>